normalP091_grf.mot
version=1
nRows=22
nColumns=19
inDegrees=yes
endheader
time	1_ground_force_vx	1_ground_force_vy	1_ground_force_vz	1_ground_force_px	1_ground_force_py	1_ground_force_pz	1_ground_torque_x	1_ground_torque_y	1_ground_torque_z	2_ground_force_vx	2_ground_force_vy	2_ground_force_vz	2_ground_force_px	2_ground_force_py	2_ground_force_pz	2_ground_torque_x	2_ground_torque_y	2_ground_torque_z
            1.843000	            0.063117	            0.048490	            0.233344	            0.333381	            0.002319	           -0.116149	            0.010722	            0.004603	            0.015661	          -29.426696	          466.994482	           23.624740	            0.880641	            0.000753	           -0.254688	            0.126492	           -2.007402	           -0.101552
            1.844000	            0.078668	            0.129146	            0.256597	            0.333381	            0.002319	           -0.116149	            0.060768	            0.025684	           -0.046556	          -28.922440	          464.435283	           23.563488	            0.881124	            0.000752	           -0.255144	            0.125326	           -2.012487	           -0.102105
            1.845000	            0.060887	           -0.508699	            0.247414	            0.333381	            0.002319	           -0.116149	            0.060916	            0.018274	           -0.087654	          -28.468941	          462.674847	           23.519888	            0.881206	            0.000752	           -0.255164	            0.123202	           -2.002264	           -0.101784
            1.846000	            0.093674	            0.048524	            0.195156	            0.333381	            0.002319	           -0.116149	            0.044225	            0.024809	            0.015749	          -27.925171	          460.435002	           23.413307	            0.881624	            0.000751	           -0.255478	            0.121849	           -2.009064	           -0.102162
            1.847000	            0.096241	            0.766985	            0.250348	            0.333381	            0.002319	           -0.116149	           -0.039614	            0.028954	           -0.047032	          -27.487575	          458.512291	           23.392337	            0.882333	            0.000748	           -0.255209	            0.118984	           -1.984741	           -0.101257
            1.848000	            0.087118	            0.368332	            0.226420	            0.333381	            0.002319	           -0.116149	           -0.022941	            0.017280	           -0.026112	          -26.963873	          457.072450	           23.365025	            0.882530	            0.000748	           -0.255593	            0.117048	           -1.984110	           -0.101425
            1.849000	            0.070636	            0.050053	            0.195102	            0.333381	            0.002319	           -0.116149	           -0.056299	            0.025554	           -0.108906	          -26.527750	          454.751145	           23.404424	            0.883092	            0.000746	           -0.255583	            0.115034	           -1.971966	           -0.101490
            1.850000	            0.065961	            0.845972	            0.219838	            0.333381	            0.002319	           -0.116149	            0.044139	            0.020539	            0.015327	          -26.030285	          452.429832	           23.405464	            0.883475	            0.000745	           -0.255501	            0.112457	           -1.954612	           -0.101118
            1.851000	            0.040262	            0.129204	            0.241175	            0.333381	            0.002319	           -0.116149	           -0.140002	            0.024899	           -0.005441	          -25.599189	          450.828863	           23.523850	            0.883854	            0.000744	           -0.255670	            0.110221	           -1.941105	           -0.101285
            1.852000	            0.101436	            0.127962	            0.225887	            0.333381	            0.002319	           -0.116149	           -0.039625	            0.023433	            0.119141	          -25.116474	          448.668381	           23.555991	            0.884162	            0.000743	           -0.255808	            0.108422	           -1.936803	           -0.101686
            1.853000	            0.046639	           -0.189393	            0.209794	            0.333381	            0.002319	           -0.116149	           -0.006177	            0.024542	           -0.046534	          -24.740805	          446.586778	           23.626881	            0.884801	            0.000740	           -0.255760	            0.106291	           -1.918620	           -0.101505
            1.854000	            0.048462	            0.289077	            0.241483	            0.333381	            0.002319	           -0.116149	           -0.039851	            0.017392	           -0.005457	          -24.416762	          445.066842	           23.637867	            0.885332	            0.000739	           -0.256119	            0.104475	           -1.904362	           -0.101142
            1.855000	            0.071463	            0.288068	            0.195561	            0.333381	            0.002319	           -0.116149	            0.127645	            0.015030	            0.036399	          -24.058470	          442.427692	           23.668647	            0.885536	            0.000739	           -0.256339	            0.104097	           -1.914315	           -0.102410
            1.856000	            0.038648	           -0.269912	            0.232565	            0.333381	            0.002319	           -0.116149	            0.010770	            0.024058	           -0.025626	          -23.765368	          440.826032	           23.686843	            0.886403	            0.000736	           -0.256360	            0.103047	           -1.911437	           -0.102707
            1.857000	            0.049051	            0.448275	            0.211259	            0.333381	            0.002319	           -0.116149	           -0.006132	            0.028524	           -0.046812	          -23.522987	          437.946912	           23.716996	            0.886840	            0.000735	           -0.256549	            0.102597	           -1.910128	           -0.103443
            1.858000	            0.079319	            0.367684	            0.249311	            0.333381	            0.002319	           -0.116149	            0.010495	            0.014289	            0.056873	          -23.252047	          436.585671	           23.720665	            0.887681	            0.000732	           -0.256686	            0.100335	           -1.883913	           -0.102357
            1.859000	            0.011076	            0.528147	            0.219017	            0.333381	            0.002319	           -0.116149	           -0.056519	            0.020249	            0.015167	          -22.975752	          434.585968	           23.730177	            0.888120	            0.000731	           -0.256906	            0.099671	           -1.885266	           -0.102943
            1.860000	            0.077860	           -0.030659	            0.233156	            0.333381	            0.002319	           -0.116149	           -0.073116	            0.023377	            0.036204	          -22.707410	          432.504936	           23.747172	            0.888512	            0.000729	           -0.256703	            0.098719	           -1.880278	           -0.103239
            1.861000	            0.048625	            0.367979	            0.226369	            0.333381	            0.002319	           -0.116149	           -0.056490	            0.034049	            0.098202	          -22.442603	          431.545810	           23.721124	            0.888955	            0.000729	           -0.257261	            0.098545	           -1.894910	           -0.104159
            1.862000	            0.079857	            0.527835	            0.242048	            0.333381	            0.002319	           -0.116149	           -0.056493	            0.027033	            0.015182	          -22.176659	          428.825294	           23.751729	            0.889326	            0.000727	           -0.257068	            0.097081	           -1.877226	           -0.103976
            1.863000	            0.064905	            0.607482	            0.226904	            0.333381	            0.002319	           -0.116149	           -0.073228	            0.023838	            0.035847	          -21.828997	          427.464016	           23.793864	            0.890291	            0.000725	           -0.257366	            0.095115	           -1.862578	           -0.103676
            1.864000	            0.095175	            0.527764	            0.219061	            0.333381	            0.002319	           -0.116149	            0.043970	            0.020759	           -0.026075	          -21.504057	          426.183134	           23.836064	            0.890438	            0.000724	           -0.257309	            0.094116	           -1.865257	           -0.104322
